<svg width="25" height="21" viewBox="0 0 25 21" fill="none" xmlns="http://www.w3.org/2000/svg">
<path fill-rule="evenodd" clip-rule="evenodd" d="M19.1504 20.728C19.4858 20.9655 19.9181 21.0249 20.3035 20.8791C20.689 20.7322 20.9723 20.403 21.0577 20.0041C21.9629 15.7499 24.1587 4.9822 24.9827 1.11241C25.0452 0.820744 24.941 0.517619 24.7119 0.322827C24.4827 0.128035 24.165 0.0717852 23.8817 0.176994C19.514 1.79366 6.06291 6.84054 0.564998 8.87491C0.216039 9.00408 -0.0110439 9.33949 0.000414431 9.7072C0.0129144 10.076 0.260831 10.3957 0.618123 10.503C3.08375 11.2405 6.32021 12.2666 6.32021 12.2666C6.32021 12.2666 7.83271 16.8343 8.62125 19.1572C8.72021 19.4489 8.94833 19.678 9.24937 19.7572C9.54937 19.8353 9.8702 19.753 10.0942 19.5416C11.3608 18.3457 13.3192 16.4968 13.3192 16.4968C13.3192 16.4968 17.04 19.2249 19.1504 20.728ZM7.68166 11.6895L9.43062 17.4582L9.81916 13.8051C9.81916 13.8051 16.5765 7.71033 20.4285 4.23637C20.541 4.13429 20.5567 3.96345 20.4629 3.84366C20.3702 3.72387 20.1994 3.69574 20.0712 3.77699C15.6067 6.62804 7.68166 11.6895 7.68166 11.6895Z" fill="white"/>
</svg>
